<svg width="13" height="13" viewBox="0 0 13 13" fill="none" xmlns="http://www.w3.org/2000/svg">
<g clip-path="url(#clip0_697_2908)">
<path d="M13 0H0V13H13V0Z" fill="white" fill-opacity="0.01"/>
<path d="M10.833 10.8333V6.5H2.16634V10.8333M10.833 10.8333H2.16634H10.833ZM10.833 10.8333H1.08301H2.16634H10.833ZM10.833 10.8333H11.9163H10.833Z" stroke="#354260" stroke-width="2" stroke-linecap="round" stroke-linejoin="round"/>
<path d="M10.8337 9.20768L9.75033 8.66602L8.66699 9.20768L7.58366 8.66602L6.50033 9.20768L5.41699 8.66602L4.33366 9.20768L3.25033 8.66602L2.16699 9.20768" stroke="#354260" stroke-width="2" stroke-linecap="round" stroke-linejoin="round"/>
<path d="M8.66699 6.5V4.0625" stroke="#354260" stroke-width="2" stroke-linecap="round" stroke-linejoin="round"/>
<path d="M6.5 6.5V4.0625" stroke="#354260" stroke-width="2" stroke-linecap="round" stroke-linejoin="round"/>
<path d="M4.33301 6.5V4.0625" stroke="#354260" stroke-width="2" stroke-linecap="round" stroke-linejoin="round"/>
<path d="M8.66699 2.70768V2.16602" stroke="#354260" stroke-width="2" stroke-linecap="round" stroke-linejoin="round"/>
<path d="M6.5 2.70768V2.16602" stroke="#354260" stroke-width="2" stroke-linecap="round" stroke-linejoin="round"/>
<path d="M4.33301 2.70768V2.16602" stroke="#354260" stroke-width="2" stroke-linecap="round" stroke-linejoin="round"/>
<path d="M2.16699 6.5V10.8333" stroke="#354260" stroke-width="2" stroke-linecap="round" stroke-linejoin="round"/>
<path d="M10.833 6.5V10.8333" stroke="#354260" stroke-width="2" stroke-linecap="round" stroke-linejoin="round"/>
</g>
<defs>
<clipPath id="clip0_697_2908">
<rect width="13" height="13" fill="white"/>
</clipPath>
</defs>
</svg>
