<svg width="20" height="24" viewBox="0 0 20 24" fill="none" xmlns="http://www.w3.org/2000/svg">
<path d="M13.083 4H14.708C15.139 4 15.5523 4.21071 15.8571 4.58579C16.1618 4.96086 16.333 5.46957 16.333 6V20C16.333 20.5304 16.1618 21.0391 15.8571 21.4142C15.5523 21.7893 15.139 22 14.708 22H4.95801C4.52703 22 4.11371 21.7893 3.80896 21.4142C3.50421 21.0391 3.33301 20.5304 3.33301 20V6C3.33301 5.46957 3.50421 4.96086 3.80896 4.58579C4.11371 4.21071 4.52703 4 4.95801 4H6.58301" stroke="#FEF9F0" stroke-width="2" stroke-linecap="round" stroke-linejoin="round"/>
<path d="M12.5003 2H7.50033C7.04009 2 6.66699 2.44772 6.66699 3V5C6.66699 5.55228 7.04009 6 7.50033 6H12.5003C12.9606 6 13.3337 5.55228 13.3337 5V3C13.3337 2.44772 12.9606 2 12.5003 2Z" stroke="#FEF9F0" stroke-width="2" stroke-linecap="round" stroke-linejoin="round"/>
</svg>
