<svg width="49" height="51" viewBox="0 0 49 51" fill="none" xmlns="http://www.w3.org/2000/svg">
<path d="M36.061 15.1229C35.9679 15.0257 35.8575 14.9488 35.7363 14.8967C35.6152 14.8446 35.4855 14.8183 35.3547 14.8193C35.2239 14.8203 35.0946 14.8486 34.9742 14.9025C34.8539 14.9565 34.7447 15.035 34.6531 15.1337L25.4893 24.9779L16.1764 15.2745C15.9882 15.0785 15.7341 14.9695 15.4701 14.9715C15.2061 14.9735 14.9537 15.0864 14.7685 15.2852C14.5834 15.4841 14.4805 15.7528 14.4826 16.032C14.4848 16.3113 14.5917 16.5783 14.7799 16.7743L24.0948 26.4756L14.9289 36.3177C14.7437 36.5166 14.6409 36.7852 14.643 37.0645C14.6451 37.3437 14.752 37.6108 14.9402 37.8068C15.1284 38.0028 15.3825 38.1119 15.6465 38.1098C15.9105 38.1078 16.1629 37.995 16.3481 37.7961L25.5119 27.9519L34.8248 37.6552C35.013 37.8513 35.2671 37.9603 35.5311 37.9583C35.7951 37.9562 36.0475 37.8434 36.2326 37.6445C36.4178 37.4456 36.5207 37.177 36.5185 36.8977C36.5164 36.6185 36.4095 36.3514 36.2213 36.1554L26.9064 26.4541L36.0723 16.612C36.1641 16.5136 36.2367 16.397 36.2859 16.2689C36.335 16.1407 36.3598 16.0036 36.3587 15.8652C36.3577 15.7269 36.3308 15.5902 36.2797 15.4628C36.2286 15.3354 36.1543 15.2199 36.061 15.1229Z" fill="url(#paint0_linear_423_5841)"/>
<defs>
<linearGradient id="paint0_linear_423_5841" x1="25.4127" y1="14.8951" x2="25.589" y2="38.034" gradientUnits="userSpaceOnUse">
<stop stop-color="#FF5A87"/>
<stop offset="1" stop-color="#EC2727"/>
</linearGradient>
</defs>
</svg>
