<svg width="50" height="50" viewBox="0 0 50 50" fill="none" xmlns="http://www.w3.org/2000/svg">
<path fill-rule="evenodd" clip-rule="evenodd" d="M11.5928 3.125H38.4069C38.9433 3.1256 39.4706 3.26333 39.9388 3.5251C40.4067 3.7867 40.8 4.1635 41.0814 4.61974C41.0816 4.62004 41.0818 4.62034 41.082 4.62065L47.9627 15.7272C48.3017 16.2755 48.4658 16.914 48.4331 17.5579C48.4005 18.2017 48.1727 18.8204 47.78 19.3316L47.7783 19.3339L27.4925 45.6453C27.4921 45.6459 27.4917 45.6464 27.4913 45.647C27.1981 46.0286 26.8212 46.3378 26.3896 46.5507C25.9573 46.7639 25.4818 46.8748 24.9999 46.8748C24.5179 46.8748 24.0424 46.7639 23.6101 46.5507C23.1785 46.3378 22.8016 46.0286 22.5084 45.647C22.508 45.6464 22.5076 45.6459 22.5072 45.6453L2.22142 19.3339L3.45884 18.3799L2.21967 19.3316C1.82698 18.8204 1.59919 18.2017 1.56657 17.5579C1.53395 16.914 1.69804 16.2755 2.03704 15.7272L8.91773 4.62065C8.9181 4.62005 8.91847 4.61945 8.91883 4.61885C9.20019 4.16301 9.59328 3.78653 10.0609 3.5251C10.5291 3.26333 11.0564 3.1256 11.5928 3.125ZM4.69772 17.4277C4.69782 17.4279 4.69791 17.428 4.69801 17.4281L24.9844 43.7403L24.9867 43.7433C24.9882 43.7453 24.9902 43.747 24.9925 43.7481C24.9948 43.7492 24.9973 43.7498 24.9999 43.7498C25.0024 43.7498 25.0049 43.7492 25.0072 43.7481C25.0095 43.747 25.0115 43.7453 25.013 43.7433L25.0154 43.7403L45.3017 17.4281C45.3018 17.428 45.3019 17.4278 45.302 17.4277C45.3081 17.4196 45.3116 17.4099 45.3121 17.3997C45.3127 17.3895 45.31 17.3792 45.3046 17.3705L38.4216 6.26021C38.4197 6.25709 38.417 6.25452 38.4138 6.25273C38.4107 6.25097 38.4072 6.25003 38.4036 6.25H11.5962C11.5926 6.25003 11.589 6.25097 11.5859 6.25273C11.5827 6.25452 11.58 6.25709 11.5781 6.26021L11.5762 6.26331L4.69509 17.3705C4.69505 17.3705 4.69502 17.3706 4.69498 17.3706C4.68963 17.3794 4.68705 17.3895 4.68757 17.3997C4.68808 17.4099 4.69162 17.4196 4.69772 17.4277Z" fill="url(#paint0_linear_235_1606)"/>
<path fill-rule="evenodd" clip-rule="evenodd" d="M3.125 17.1875C3.125 16.3246 3.82456 15.625 4.6875 15.625H45.3125C46.1754 15.625 46.875 16.3246 46.875 17.1875C46.875 18.0504 46.1754 18.75 45.3125 18.75H4.6875C3.82456 18.75 3.125 18.0504 3.125 17.1875Z" fill="url(#paint1_linear_235_1606)"/>
<path fill-rule="evenodd" clip-rule="evenodd" d="M24.0626 3.43759C24.7529 2.91982 25.7323 3.05974 26.2501 3.75009L34.0035 14.088L37.6264 5.63459C37.9664 4.84142 38.8849 4.474 39.6781 4.81393C40.4713 5.15386 40.8387 6.07242 40.4988 6.86559L35.8113 17.8031C35.5915 18.3159 35.115 18.6726 34.5611 18.739C34.0071 18.8054 33.4598 18.5714 33.1251 18.1251L23.7501 5.62509C23.2323 4.93474 23.3722 3.95536 24.0626 3.43759Z" fill="url(#paint2_linear_235_1606)"/>
<path fill-rule="evenodd" clip-rule="evenodd" d="M25.9379 3.43759C26.6283 3.95536 26.7682 4.93474 26.2504 5.62509L16.8754 18.1251C16.5407 18.5714 15.9934 18.8054 15.4394 18.739C14.8855 18.6726 14.409 18.3159 14.1892 17.8031L9.50174 6.86559C9.16181 6.07242 9.52923 5.15386 10.3224 4.81393C11.1156 4.474 12.0341 4.84142 12.3741 5.63459L15.997 14.088L23.7504 3.75009C24.2682 3.05974 25.2475 2.91982 25.9379 3.43759Z" fill="url(#paint3_linear_235_1606)"/>
<path fill-rule="evenodd" clip-rule="evenodd" d="M15.1054 15.7145C15.9191 15.4273 16.8116 15.8541 17.0988 16.6679L26.4738 43.2304C26.7611 44.0441 26.3342 44.9366 25.5205 45.2239C24.7067 45.5111 23.8142 45.0842 23.527 44.2705L14.152 17.708C13.8648 16.8942 14.2916 16.0017 15.1054 15.7145Z" fill="url(#paint4_linear_235_1606)"/>
<path fill-rule="evenodd" clip-rule="evenodd" d="M34.8955 15.7145C35.7092 16.0017 36.1361 16.8942 35.8488 17.708L26.4738 44.2705C26.1866 45.0842 25.2941 45.5111 24.4804 45.2239C23.6666 44.9366 23.2398 44.0441 23.527 43.2304L32.902 16.6679C33.1892 15.8541 34.0817 15.4273 34.8955 15.7145Z" fill="url(#paint5_linear_235_1606)"/>
<defs>
<linearGradient id="paint0_linear_235_1606" x1="24.9999" y1="3.125" x2="24.9999" y2="46.8748" gradientUnits="userSpaceOnUse">
<stop stop-color="#FFA006"/>
<stop offset="1" stop-color="#FF6941"/>
</linearGradient>
<linearGradient id="paint1_linear_235_1606" x1="25" y1="15.625" x2="25" y2="18.75" gradientUnits="userSpaceOnUse">
<stop stop-color="#FFA006"/>
<stop offset="1" stop-color="#FF6941"/>
</linearGradient>
<linearGradient id="paint2_linear_235_1606" x1="32.0315" y1="3.125" x2="32.0315" y2="18.7501" gradientUnits="userSpaceOnUse">
<stop stop-color="#FFA006"/>
<stop offset="1" stop-color="#FF6941"/>
</linearGradient>
<linearGradient id="paint3_linear_235_1606" x1="17.969" y1="3.125" x2="17.969" y2="18.7501" gradientUnits="userSpaceOnUse">
<stop stop-color="#FFA006"/>
<stop offset="1" stop-color="#FF6941"/>
</linearGradient>
<linearGradient id="paint4_linear_235_1606" x1="20.3129" y1="15.625" x2="20.3129" y2="45.3134" gradientUnits="userSpaceOnUse">
<stop stop-color="#FFA006"/>
<stop offset="1" stop-color="#FF6941"/>
</linearGradient>
<linearGradient id="paint5_linear_235_1606" x1="29.6879" y1="15.625" x2="29.6879" y2="45.3134" gradientUnits="userSpaceOnUse">
<stop stop-color="#FFA006"/>
<stop offset="1" stop-color="#FF6941"/>
</linearGradient>
</defs>
</svg>
