<svg width="17" height="17" viewBox="0 0 17 17" fill="none" xmlns="http://www.w3.org/2000/svg">
<path d="M8.5 14.166H14.875" stroke="url(#paint0_linear_697_2939)" stroke-width="2" stroke-linecap="round" stroke-linejoin="round"/>
<path d="M11.6875 2.47916C11.9693 2.19737 12.3515 2.03906 12.75 2.03906C12.9473 2.03906 13.1427 2.07793 13.325 2.15344C13.5073 2.22895 13.673 2.33963 13.8125 2.47916C13.952 2.61869 14.0627 2.78434 14.1382 2.96664C14.2137 3.14895 14.2526 3.34434 14.2526 3.54166C14.2526 3.73899 14.2137 3.93438 14.1382 4.11669C14.0627 4.29899 13.952 4.46463 13.8125 4.60416L4.95833 13.4583L2.125 14.1667L2.83333 11.3333L11.6875 2.47916Z" stroke="url(#paint1_linear_697_2939)" stroke-width="2" stroke-linecap="round" stroke-linejoin="round"/>
<path d="M11.6875 2.47916C11.9693 2.19737 12.3515 2.03906 12.75 2.03906C12.9473 2.03906 13.1427 2.07793 13.325 2.15344C13.5073 2.22895 13.673 2.33963 13.8125 2.47916C13.952 2.61869 14.0627 2.78434 14.1382 2.96664C14.2137 3.14895 14.2526 3.34434 14.2526 3.54166C14.2526 3.73899 14.2137 3.93438 14.1382 4.11669C14.0627 4.29899 13.952 4.46463 13.8125 4.60416L4.95833 13.4583L2.125 14.1667L2.83333 11.3333L11.6875 2.47916Z" stroke="url(#paint2_linear_697_2939)" stroke-width="2" stroke-linecap="round" stroke-linejoin="round"/>
<defs>
<linearGradient id="paint0_linear_697_2939" x1="11.6875" y1="14.166" x2="11.6875" y2="15.166" gradientUnits="userSpaceOnUse">
<stop stop-color="#FFA006"/>
<stop offset="1" stop-color="#FF6941"/>
</linearGradient>
<linearGradient id="paint1_linear_697_2939" x1="8.1888" y1="2.03906" x2="8.1888" y2="14.1667" gradientUnits="userSpaceOnUse">
<stop stop-color="#FFA006"/>
<stop offset="1" stop-color="#FF6941"/>
</linearGradient>
<linearGradient id="paint2_linear_697_2939" x1="8.1888" y1="2.03906" x2="8.1888" y2="14.1667" gradientUnits="userSpaceOnUse">
<stop stop-color="#FFA006"/>
<stop offset="1" stop-color="#FF6941"/>
</linearGradient>
</defs>
</svg>
