<svg width="13" height="18" viewBox="0 0 13 18" fill="none" xmlns="http://www.w3.org/2000/svg">
<g clip-path="url(#clip0_672_634)">
<path d="M5.95801 3H2.16634C1.87902 3 1.60347 3.15804 1.40031 3.43934C1.19714 3.72064 1.08301 4.10218 1.08301 4.5V15C1.08301 15.3978 1.19714 15.7794 1.40031 16.0607C1.60347 16.342 1.87902 16.5 2.16634 16.5H9.74967C10.037 16.5 10.3125 16.342 10.5157 16.0607C10.7189 15.7794 10.833 15.3978 10.833 15V9.75" stroke="#FEF9F0" stroke-width="2" stroke-linecap="round" stroke-linejoin="round"/>
<path d="M10.0205 1.87419C10.236 1.57582 10.5283 1.4082 10.833 1.4082C11.1378 1.4082 11.43 1.57582 11.6455 1.87419C11.861 2.17256 11.9821 2.57724 11.9821 2.99919C11.9821 3.42115 11.861 3.82582 11.6455 4.12419L6.49967 11.2492L4.33301 11.9992L4.87467 8.99919L10.0205 1.87419Z" stroke="#FEF9F0" stroke-width="2" stroke-linecap="round" stroke-linejoin="round"/>
</g>
<defs>
<clipPath id="clip0_672_634">
<rect width="13" height="18" fill="white"/>
</clipPath>
</defs>
</svg>
