<svg width="13" height="13" viewBox="0 0 13 13" fill="none" xmlns="http://www.w3.org/2000/svg">
<g clip-path="url(#clip0_697_2923)">
<path d="M6.49967 8.66732C7.69629 8.66732 8.66634 7.69727 8.66634 6.50065C8.66634 5.30403 7.69629 4.33398 6.49967 4.33398C5.30306 4.33398 4.33301 5.30403 4.33301 6.50065C4.33301 7.69727 5.30306 8.66732 6.49967 8.66732Z" stroke="#354260" stroke-linecap="round" stroke-linejoin="round"/>
<path d="M8.66635 4.33365V7.04198C8.66635 7.47296 8.83755 7.88628 9.1423 8.19103C9.44705 8.49578 9.86037 8.66698 10.2913 8.66698C10.7223 8.66698 11.1356 8.49578 11.4404 8.19103C11.7451 7.88628 11.9163 7.47296 11.9163 7.04198V6.50031C11.9163 5.27779 11.5026 4.09124 10.7427 3.1336C9.98277 2.17597 8.92123 1.50356 7.73069 1.22573C6.54016 0.94789 5.29064 1.08096 4.18533 1.60331C3.08001 2.12565 2.18389 3.00654 1.64269 4.10275C1.10149 5.19896 0.947036 6.44601 1.20444 7.64113C1.46184 8.83625 2.11596 9.90915 3.06044 10.6854C4.00492 11.4616 5.18421 11.8955 6.40655 11.9165C7.6289 11.9375 8.82241 11.5444 9.79301 10.8011" stroke="#354260" stroke-linecap="round" stroke-linejoin="round"/>
</g>
<defs>
<clipPath id="clip0_697_2923">
<rect width="13" height="13" fill="white"/>
</clipPath>
</defs>
</svg>
