<svg width="13" height="13" viewBox="0 0 13 13" fill="none" xmlns="http://www.w3.org/2000/svg">
<path d="M9.64684 2.4219C9.60351 2.4219 9.56017 2.41107 9.52226 2.3894C8.48226 1.85315 7.58309 1.62565 6.50517 1.62565C5.43267 1.62565 4.41434 1.88023 3.48809 2.3894C3.35809 2.45982 3.19559 2.41107 3.11976 2.28107C3.04934 2.15107 3.09809 1.98315 3.22809 1.91273C4.23559 1.36565 5.34059 1.08398 6.50517 1.08398C7.65893 1.08398 8.66643 1.33857 9.77143 1.90732C9.90684 1.97773 9.95559 2.14023 9.88517 2.27023C9.83642 2.36773 9.74434 2.4219 9.64684 2.4219ZM1.89559 5.26565C1.84142 5.26565 1.78726 5.2494 1.73851 5.2169C1.61392 5.13023 1.58684 4.96232 1.67351 4.83773C2.20976 4.0794 2.89226 3.48357 3.70476 3.06648C5.40559 2.18898 7.58309 2.18357 9.28934 3.06107C10.1018 3.47815 10.7843 4.06857 11.3206 4.82148C11.4073 4.94065 11.3802 5.11398 11.2556 5.20065C11.131 5.28732 10.9631 5.26023 10.8764 5.13565C10.3889 4.45315 9.77143 3.9169 9.04017 3.54315C7.48559 2.7469 5.49767 2.7469 3.94851 3.54857C3.21184 3.92773 2.59434 4.4694 2.10684 5.1519C2.06351 5.22773 1.98226 5.26565 1.89559 5.26565ZM5.28101 11.8036C5.21059 11.8036 5.14017 11.7765 5.09142 11.7223C4.62017 11.2511 4.36559 10.9477 4.00267 10.2923C3.62892 9.62607 3.43392 8.81357 3.43392 7.94148C3.43392 6.33273 4.80976 5.0219 6.49976 5.0219C8.18976 5.0219 9.56559 6.33273 9.56559 7.94148C9.56559 8.09315 9.44642 8.21232 9.29476 8.21232C9.14309 8.21232 9.02392 8.09315 9.02392 7.94148C9.02392 6.63065 7.89184 5.56357 6.49976 5.56357C5.10767 5.56357 3.97559 6.63065 3.97559 7.94148C3.97559 8.72148 4.14893 9.4419 4.47934 10.0269C4.82601 10.6498 5.06434 10.9152 5.48142 11.3377C5.58434 11.4461 5.58434 11.614 5.48142 11.7223C5.42184 11.7765 5.35142 11.8036 5.28101 11.8036ZM9.16476 10.8015C8.52017 10.8015 7.95142 10.639 7.48559 10.3194C6.67851 9.77232 6.19642 8.88398 6.19642 7.94148C6.19642 7.78982 6.31559 7.67065 6.46726 7.67065C6.61892 7.67065 6.73809 7.78982 6.73809 7.94148C6.73809 8.70523 7.12809 9.42565 7.78892 9.86982C8.17351 10.1298 8.62309 10.2544 9.16476 10.2544C9.29476 10.2544 9.51142 10.2382 9.72809 10.2002C9.87434 10.1732 10.0152 10.2707 10.0423 10.4223C10.0693 10.5686 9.97184 10.7094 9.82017 10.7365C9.51142 10.7961 9.24059 10.8015 9.16476 10.8015ZM8.07601 11.9173C8.05434 11.9173 8.02726 11.9119 8.00559 11.9065C7.14434 11.6682 6.58101 11.3486 5.99059 10.769C5.23226 10.0161 4.81518 9.01398 4.81518 7.94148C4.81518 7.06398 5.56267 6.34898 6.48351 6.34898C7.40434 6.34898 8.15184 7.06398 8.15184 7.94148C8.15184 8.52107 8.65559 8.99232 9.27851 8.99232C9.90142 8.99232 10.4052 8.52107 10.4052 7.94148C10.4052 5.8994 8.64476 4.2419 6.47809 4.2419C4.93976 4.2419 3.53142 5.09773 2.89767 6.42482C2.68642 6.86357 2.57809 7.37815 2.57809 7.94148C2.57809 8.36398 2.61601 9.03023 2.94101 9.8969C2.99517 10.0377 2.92476 10.1948 2.78392 10.2436C2.64309 10.2977 2.48601 10.2219 2.43726 10.0865C2.17184 9.3769 2.04184 8.67273 2.04184 7.94148C2.04184 7.29148 2.16642 6.70107 2.41017 6.18648C3.13059 4.67523 4.72851 3.69482 6.47809 3.69482C8.94267 3.69482 10.9468 5.59607 10.9468 7.93607C10.9468 8.81357 10.1993 9.52857 9.27851 9.52857C8.35767 9.52857 7.61017 8.81357 7.61017 7.93607C7.61017 7.35648 7.10642 6.88523 6.48351 6.88523C5.86059 6.88523 5.35684 7.35648 5.35684 7.93607C5.35684 8.86232 5.71434 9.72898 6.36976 10.379C6.88434 10.8882 7.37726 11.1698 8.14101 11.3811C8.28726 11.419 8.36851 11.5707 8.33059 11.7115C8.30351 11.8361 8.18976 11.9173 8.07601 11.9173Z" fill="#354260"/>
</svg>
