<svg width="50" height="50" viewBox="0 0 50 50" fill="none" xmlns="http://www.w3.org/2000/svg">
<path fill-rule="evenodd" clip-rule="evenodd" d="M24.99 4.68757C24.5328 4.68462 24.0796 4.7725 23.6566 4.94611C23.2336 5.11972 22.8493 5.3756 22.526 5.6989C22.2027 6.0222 21.9469 6.40649 21.7733 6.82946C21.5997 7.25244 21.5118 7.70568 21.5147 8.16288L21.5148 8.16792V8.17296C21.5148 9.63976 22.0485 12.6245 22.5351 15.0124C22.7073 15.8579 22.1615 16.6831 21.316 16.8554C20.4704 17.0277 19.6453 16.4818 19.473 15.6363C19.0048 13.3387 18.3909 10.0246 18.3898 8.1779C18.3848 7.30867 18.5522 6.44706 18.8823 5.64289C19.213 4.83713 19.7005 4.10507 20.3163 3.48919C20.9322 2.87331 21.6643 2.38587 22.47 2.05515C23.2742 1.72507 24.1359 1.55767 25.0051 1.56261C28.6646 1.56537 31.6105 4.58808 31.6105 8.17296C31.6105 9.97299 30.999 13.3084 30.5276 15.6346C30.3562 16.4804 29.5316 17.0271 28.6859 16.8557C27.8401 16.6843 27.2934 15.8598 27.4648 15.014C27.9544 12.598 28.4855 9.59558 28.4855 8.17296C28.4855 6.29072 26.9145 4.6876 25.0001 4.6876V3.1251L24.99 4.68757Z" fill="url(#paint0_linear_235_1641)"/>
<path fill-rule="evenodd" clip-rule="evenodd" d="M21.3164 33.1451C22.162 33.3177 22.7075 34.143 22.535 34.9885C22.0466 37.3818 21.5148 40.35 21.5148 41.8275V41.8325L21.5147 41.8375C21.5118 42.2947 21.5997 42.748 21.7733 43.171C21.9469 43.5939 22.2027 43.9782 22.526 44.3015C22.8493 44.6248 23.2336 44.8807 23.6566 45.0543C24.0796 45.2279 24.5328 45.3158 24.99 45.3128L25.0001 46.8753V45.3128C26.9145 45.3128 28.4855 43.7097 28.4855 41.8275C28.4855 40.401 27.9545 37.4047 27.4648 34.9862C27.2935 34.1404 27.8404 33.3159 28.6861 33.1447C29.5319 32.9734 30.3564 33.5202 30.5276 34.366C30.9989 36.6936 31.6105 40.0235 31.6105 41.8275C31.6105 45.4123 28.6646 48.4351 25.0051 48.4378C24.1358 48.4427 23.2742 48.2753 22.47 47.9453C21.6643 47.6145 20.9322 47.1271 20.3163 46.5112C19.7005 45.8953 19.213 45.1633 18.8823 44.3575C18.5522 43.5533 18.3848 42.6917 18.3898 41.8225C18.3908 39.965 19.0029 36.6676 19.4731 34.3637C19.6456 33.5181 20.4709 32.9726 21.3164 33.1451Z" fill="url(#paint1_linear_235_1641)"/>
<path fill-rule="evenodd" clip-rule="evenodd" d="M43.171 21.7723C42.748 21.5987 42.2947 21.5108 41.8375 21.5137L41.8325 21.5138H41.8275C40.35 21.5138 37.3818 22.0456 34.9885 22.534C34.143 22.7065 33.3177 22.161 33.1451 21.3155C32.9726 20.4699 33.5181 19.6446 34.3637 19.4721C36.6676 19.0019 39.965 18.3899 41.8225 18.3888C42.6917 18.3839 43.5533 18.5513 44.3575 18.8813C45.1633 19.212 45.8953 19.6995 46.5112 20.3154C47.1271 20.9312 47.6145 21.6633 47.9453 22.4691C48.2753 23.2732 48.4427 24.1349 48.4378 25.0041C48.4351 28.6636 45.4123 31.6095 41.8275 31.6095C40.0274 31.6095 36.692 30.998 34.3658 30.5266C33.52 30.3552 32.9733 29.5307 33.1447 28.6849C33.3161 27.8392 34.1406 27.2925 34.9864 27.4638C37.4024 27.9534 40.4048 28.4845 41.8275 28.4845C43.7097 28.4845 45.3128 26.9135 45.3128 24.9991H46.8753L45.3128 24.9891C45.3158 24.5318 45.2279 24.0786 45.0543 23.6556C44.8807 23.2327 44.6248 22.8484 44.3015 22.5251C43.9782 22.2018 43.5939 21.9459 43.171 21.7723Z" fill="url(#paint2_linear_235_1641)"/>
<path fill-rule="evenodd" clip-rule="evenodd" d="M8.1779 18.3888C10.0264 18.3899 13.3382 19.0028 15.6363 19.471C16.4818 19.6433 17.0277 20.4684 16.8554 21.314C16.6831 22.1596 15.8579 22.7054 15.0124 22.5331C12.625 22.0467 9.64186 21.5138 8.17296 21.5138H8.16792L8.16288 21.5137C7.70568 21.5108 7.25244 21.5987 6.82946 21.7723C6.40649 21.9459 6.0222 22.2018 5.6989 22.5251C5.3756 22.8484 5.11972 23.2327 4.94611 23.6556C4.7725 24.0786 4.68462 24.5318 4.68757 24.9891L3.1251 24.9991H4.6876C4.6876 26.9135 6.29072 28.4845 8.17296 28.4845C9.59558 28.4845 12.598 27.9534 15.014 27.4638C15.8598 27.2925 16.6843 27.8392 16.8557 28.6849C17.0271 29.5307 16.4804 30.3552 15.6346 30.5266C13.3084 30.998 9.97299 31.6095 8.17296 31.6095C4.58808 31.6095 1.56537 28.6636 1.56261 25.0042C1.55767 24.1349 1.72507 23.2733 2.05515 22.4691C2.38587 21.6633 2.87331 20.9312 3.48919 20.3154C4.10507 19.6995 4.83713 19.212 5.64289 18.8813C6.44706 18.5513 7.30867 18.3839 8.1779 18.3888Z" fill="url(#paint3_linear_235_1641)"/>
<path fill-rule="evenodd" clip-rule="evenodd" d="M36.8986 9.60156C36.4414 9.60156 35.9888 9.69238 35.567 9.86874C35.1451 10.0451 34.7626 10.3035 34.4414 10.6289L34.4376 10.6328L34.4337 10.6367C33.3867 11.6829 31.641 14.1578 30.2994 16.1856C29.8232 16.9053 28.8538 17.1027 28.1341 16.6265C27.4144 16.1504 27.217 15.1809 27.6932 14.4612C28.9967 12.491 30.9107 9.7408 32.2211 8.42993C32.8321 7.8118 33.5596 7.32089 34.3615 6.9856C35.1652 6.64959 36.0275 6.47656 36.8986 6.47656C37.7697 6.47656 38.6321 6.64959 39.4357 6.9856C40.2378 7.32094 40.9653 7.81194 41.5764 8.4302C44.1621 11.0199 44.1077 15.2395 41.5733 17.7745C40.3036 19.0453 37.5266 20.9863 35.54 22.3049C34.8211 22.7821 33.8514 22.5862 33.3741 21.8672C32.8969 21.1482 33.0929 20.1785 33.8119 19.7013C35.8566 18.3441 38.355 16.5742 39.3626 15.5657L39.3631 15.5652C40.6942 14.2342 40.7169 11.9901 39.3631 10.6363L40.468 9.53139L39.3558 10.6289C39.0346 10.3035 38.6521 10.0451 38.2303 9.86874C37.8084 9.69238 37.3558 9.60156 36.8986 9.60156Z" fill="url(#paint4_linear_235_1641)"/>
<path fill-rule="evenodd" clip-rule="evenodd" d="M16.6275 28.1341C17.1037 28.8538 16.9062 29.8232 16.1865 30.2994C14.1587 31.641 11.6838 33.3867 10.6377 34.4337L10.6338 34.4376L10.6299 34.4414C10.3045 34.7626 10.0461 35.1451 9.86972 35.567C9.69336 35.9888 9.60254 36.4414 9.60254 36.8986C9.60254 37.3558 9.69336 37.8084 9.86972 38.2303C10.0461 38.6521 10.3045 39.0346 10.6299 39.3558L10.6336 39.3594L10.6372 39.3631C11.9911 40.7169 14.2351 40.6942 15.5662 39.3631L15.5667 39.3626C16.5752 38.355 18.345 35.8566 19.7023 33.8119C20.1795 33.0929 21.1492 32.8969 21.8682 33.3741C22.5871 33.8514 22.7831 34.8211 22.3059 35.54C20.9873 37.5266 19.0463 40.3036 17.7754 41.5733C15.2405 44.1077 11.0208 44.1621 8.43117 41.5764C7.81292 40.9653 7.32191 40.2378 6.98658 39.4357C6.65057 38.6321 6.47754 37.7697 6.47754 36.8986C6.47754 36.0275 6.65057 35.1652 6.98658 34.3615C7.32187 33.5596 7.81277 32.8321 8.4309 32.2211C9.74178 30.9107 12.492 28.9967 14.4622 27.6932C15.1819 27.217 16.1513 27.4144 16.6275 28.1341Z" fill="url(#paint5_linear_235_1641)"/>
<path fill-rule="evenodd" clip-rule="evenodd" d="M33.3728 28.1341C33.849 27.4144 34.8184 27.217 35.5381 27.6932C37.5084 28.9967 40.2586 30.9107 41.5694 32.2211C42.1876 32.8321 42.6785 33.5596 43.0138 34.3615C43.3498 35.1652 43.5228 36.0275 43.5228 36.8986C43.5228 37.7697 43.3498 38.6321 43.0138 39.4357C42.6784 40.2377 42.1874 40.9653 41.5692 41.5764C38.9794 44.1623 34.7594 44.1077 32.2244 41.5728C30.9521 40.3005 29.0143 37.5291 27.6943 35.5399C27.2172 34.8209 27.4133 33.8512 28.1323 33.374C28.8513 32.8969 29.821 33.093 30.2982 33.812C31.6559 35.858 33.4232 38.3522 34.4341 39.3631C35.7652 40.6942 38.0092 40.7169 39.3631 39.3631L40.4679 40.4679L39.3704 39.3558C39.6959 39.0347 39.9543 38.6521 40.1306 38.2303C40.307 37.8084 40.3978 37.3558 40.3978 36.8986C40.3978 36.4414 40.307 35.9888 40.1306 35.567C39.9543 35.1451 39.6959 34.7626 39.3704 34.4414L39.3665 34.4376L39.3626 34.4337C38.3165 33.3867 35.8416 31.641 33.8138 30.2994C33.0941 29.8232 32.8967 28.8538 33.3728 28.1341Z" fill="url(#paint6_linear_235_1641)"/>
<path fill-rule="evenodd" clip-rule="evenodd" d="M10.5641 6.9856C11.3678 6.64959 12.2302 6.47656 13.1012 6.47656C13.9723 6.47656 14.8347 6.64959 15.6383 6.9856C16.4404 7.32094 17.168 7.81194 17.7791 8.43021C19.0811 9.73382 21.0048 12.4955 22.3063 14.4607C22.7828 15.1801 22.5858 16.1497 21.8663 16.6261C21.1469 17.1026 20.1773 16.9056 19.7009 16.1862C18.361 14.163 16.6054 11.676 15.5657 10.6363L15.5621 10.6326L15.5584 10.6289C15.2373 10.3035 14.8547 10.0451 14.4329 9.86874C14.0111 9.69238 13.5584 9.60156 13.1012 9.60156C12.644 9.60156 12.1914 9.69238 11.7696 9.86874C11.3478 10.0451 10.9652 10.3035 10.6441 10.6289L9.5319 9.53142L10.6368 10.6363C9.28291 11.9901 9.30569 14.2342 10.6368 15.5652C11.6399 16.5684 14.1466 18.3453 16.1884 19.7016C16.9072 20.179 17.1029 21.1488 16.6254 21.8676C16.148 22.5864 15.1782 22.7821 14.4594 22.3046C12.4758 20.9871 9.69148 19.0394 8.42705 17.7749C5.89212 15.24 5.83759 11.0201 8.42339 8.43022C9.03448 7.81195 9.76208 7.32094 10.5641 6.9856Z" fill="url(#paint7_linear_235_1641)"/>
<path fill-rule="evenodd" clip-rule="evenodd" d="M25 20.3125C22.4112 20.3125 20.3125 22.4112 20.3125 25C20.3125 27.5888 22.4112 29.6875 25 29.6875C27.5888 29.6875 29.6875 27.5888 29.6875 25C29.6875 22.4112 27.5888 20.3125 25 20.3125ZM17.1875 25C17.1875 20.6853 20.6853 17.1875 25 17.1875C29.3147 17.1875 32.8125 20.6853 32.8125 25C32.8125 29.3147 29.3147 32.8125 25 32.8125C20.6853 32.8125 17.1875 29.3147 17.1875 25Z" fill="url(#paint8_linear_235_1641)"/>
<defs>
<linearGradient id="paint0_linear_235_1641" x1="25.0001" y1="1.5625" x2="25.0001" y2="16.8871" gradientUnits="userSpaceOnUse">
<stop stop-color="#FFA006"/>
<stop offset="1" stop-color="#FF6941"/>
</linearGradient>
<linearGradient id="paint1_linear_235_1641" x1="25.0001" y1="33.1133" x2="25.0001" y2="48.4379" gradientUnits="userSpaceOnUse">
<stop stop-color="#FFA006"/>
<stop offset="1" stop-color="#FF6941"/>
</linearGradient>
<linearGradient id="paint2_linear_235_1641" x1="40.7756" y1="18.3887" x2="40.7756" y2="31.6095" gradientUnits="userSpaceOnUse">
<stop stop-color="#FFA006"/>
<stop offset="1" stop-color="#FF6941"/>
</linearGradient>
<linearGradient id="paint3_linear_235_1641" x1="9.22482" y1="18.3887" x2="9.22482" y2="31.6095" gradientUnits="userSpaceOnUse">
<stop stop-color="#FFA006"/>
<stop offset="1" stop-color="#FF6941"/>
</linearGradient>
<linearGradient id="paint4_linear_235_1641" x1="35.4643" y1="6.47656" x2="35.4643" y2="22.5658" gradientUnits="userSpaceOnUse">
<stop stop-color="#FFA006"/>
<stop offset="1" stop-color="#FF6941"/>
</linearGradient>
<linearGradient id="paint5_linear_235_1641" x1="14.5221" y1="27.4336" x2="14.5221" y2="43.495" gradientUnits="userSpaceOnUse">
<stop stop-color="#FFA006"/>
<stop offset="1" stop-color="#FF6941"/>
</linearGradient>
<linearGradient id="paint6_linear_235_1641" x1="35.4782" y1="27.4336" x2="35.4782" y2="43.495" gradientUnits="userSpaceOnUse">
<stop stop-color="#FFA006"/>
<stop offset="1" stop-color="#FF6941"/>
</linearGradient>
<linearGradient id="paint7_linear_235_1641" x1="14.5356" y1="6.47656" x2="14.5356" y2="22.5658" gradientUnits="userSpaceOnUse">
<stop stop-color="#FFA006"/>
<stop offset="1" stop-color="#FF6941"/>
</linearGradient>
<linearGradient id="paint8_linear_235_1641" x1="25" y1="17.1875" x2="25" y2="32.8125" gradientUnits="userSpaceOnUse">
<stop stop-color="#FFA006"/>
<stop offset="1" stop-color="#FF6941"/>
</linearGradient>
</defs>
</svg>
