<svg width="13" height="13" viewBox="0 0 13 13" fill="none" xmlns="http://www.w3.org/2000/svg">
<g clip-path="url(#clip0_697_2931)">
<path d="M3.79134 3.79167C4.38965 3.79167 4.87467 3.30664 4.87467 2.70833C4.87467 2.11002 4.38965 1.625 3.79134 1.625C3.19303 1.625 2.70801 2.11002 2.70801 2.70833C2.70801 3.30664 3.19303 3.79167 3.79134 3.79167Z" stroke="#354260" stroke-width="2" stroke-linecap="round" stroke-linejoin="round"/>
<path d="M2.70866 11.9173V9.20898L2.16699 8.66732V6.50065C2.16699 6.35699 2.22406 6.21922 2.32564 6.11763C2.42722 6.01605 2.565 5.95898 2.70866 5.95898H4.87533C5.01898 5.95898 5.15676 6.01605 5.25834 6.11763C5.35992 6.21922 5.41699 6.35699 5.41699 6.50065V8.66732L4.87533 9.20898V11.9173" stroke="#354260" stroke-width="2" stroke-linecap="round" stroke-linejoin="round"/>
<path d="M9.20833 3.79167C9.80664 3.79167 10.2917 3.30664 10.2917 2.70833C10.2917 2.11002 9.80664 1.625 9.20833 1.625C8.61002 1.625 8.125 2.11002 8.125 2.70833C8.125 3.30664 8.61002 3.79167 9.20833 3.79167Z" stroke="#354260" stroke-width="2" stroke-linecap="round" stroke-linejoin="round"/>
<path d="M8.12533 11.9173V9.75065H7.04199L8.12533 6.50065C8.12533 6.35699 8.18239 6.21922 8.28398 6.11763C8.38556 6.01605 8.52333 5.95898 8.66699 5.95898H9.75033C9.89398 5.95898 10.0318 6.01605 10.1333 6.11763C10.2349 6.21922 10.292 6.35699 10.292 6.50065L11.3753 9.75065H10.292V11.9173" stroke="#354260" stroke-width="2" stroke-linecap="round" stroke-linejoin="round"/>
</g>
<defs>
<clipPath id="clip0_697_2931">
<rect width="13" height="13" fill="white"/>
</clipPath>
</defs>
</svg>
